<svg width="1300" height="1300" viewBox="0 0 1300 1300" fill="none" xmlns="http://www.w3.org/2000/svg">
<rect width="1300" height="1300" fill="white"/>
<rect width="1080" height="1080" transform="translate(110 13)" fill="white"/>
<ellipse cx="650" cy="586.932" rx="525" ry="319.068" fill="#2F3276"/>
<ellipse cx="650" cy="567.864" rx="507.203" ry="282.203" fill="#FFD100"/>
<mask id="path-4-inside-1_202_53" fill="white">
<path fill-rule="evenodd" clip-rule="evenodd" d="M172.091 204.641C154.557 217.027 159.125 247.907 179.498 254.728C186.557 257.091 191.114 256.523 220.581 249.606L253.723 241.827L257.937 253.781C260.254 260.356 276.016 305.534 292.966 354.174C295.283 360.822 297.554 367.341 299.782 373.734C304.471 387.191 308.965 400.09 313.273 412.455C409.509 688.668 412.893 698.382 418.982 705.909C419.204 706.183 419.429 706.454 419.663 706.735C420.086 707.245 420.537 707.788 421.042 708.439C432.039 722.61 443.442 731.204 458.838 736.92C460.092 737.385 461.253 737.834 462.357 738.261C464.591 739.125 466.587 739.896 468.627 740.525C485.718 745.788 505.907 740.994 695.207 696.042C706.356 693.394 718.091 690.607 730.447 687.675L963.842 632.288L976.157 622.166C991.205 609.794 1002.78 591.966 1006.59 575.313C1007.4 571.762 1007.59 542.317 1007.39 501.593C1007.2 465.489 1006.7 420.518 1006.02 376.868C1004.77 295.628 1002.91 218.958 1001.4 212.509C997.122 194.281 979.841 177.26 959.894 171.626L947.057 168L642.678 238.847L338.298 309.694L319.009 254.041C317.727 250.342 316.511 246.813 315.351 243.448C302.628 206.529 296.688 189.293 285.014 183.385C274.792 178.212 260.173 181.727 232.751 188.321C229.896 189.007 226.903 189.727 223.761 190.473C197.553 196.704 174.302 203.079 172.091 204.641ZM951.089 501.593L948.935 394.358L948.034 349.495L945.595 227.998L657.216 295.689L651.41 297.052L357.228 366.105L360.34 373.815C362.053 378.057 369.63 399.322 377.182 421.076C384.068 440.915 390.415 459.213 396.269 476.091C397.103 478.494 397.927 480.869 398.74 483.215C398.773 483.31 398.806 483.404 398.839 483.498C401 489.728 403.091 495.758 405.115 501.593C462.944 668.302 465.923 676.429 471.551 679.226C471.837 679.368 472.129 679.496 472.435 679.63C473.073 679.91 473.773 680.217 474.602 680.731C474.961 680.953 475.3 681.171 475.628 681.381C476.252 681.781 476.835 682.154 477.439 682.489C486.039 687.255 498.985 684.177 696.197 637.302C703.482 635.57 711.018 633.779 718.815 631.926L941.058 579.108L946.667 569.913L952.276 560.716L951.089 501.593ZM736.627 367.635C754.706 353.033 783.626 365.073 784.368 387.509C784.379 387.816 784.309 388.28 784.165 388.891C784.145 388.978 784.123 389.069 784.099 389.162C781.267 400.356 756.674 454.402 733.907 501.593C715.557 539.63 698.393 573.213 694.767 576.315C683.417 586.03 675.969 584.72 617.403 562.733C554.133 538.978 547.195 533.5 552.696 511.652C553.681 507.738 554.843 504.39 556.286 501.593C563.905 486.823 579.357 487.453 618.034 501.593C619.391 502.089 620.777 502.602 622.192 503.132C643.543 511.119 661.421 517.56 661.917 517.443C662.259 517.363 665.552 510.935 670.087 501.593C672.132 497.381 674.429 492.577 676.822 487.495C684.521 471.139 691.227 457.156 691.722 456.42C692.216 455.685 701.546 436.197 712.451 413.113C723.359 390.03 734.238 369.564 736.627 367.635ZM656.022 844.486C657.726 849.729 658.935 854.916 659.686 860.017C656.465 860.051 653.236 860.068 650 860.068C633.175 860.068 616.542 859.612 600.137 858.721C599.011 856.847 597.602 855.025 595.887 853.285C592.721 850.072 587.601 846.581 584.509 845.529C570.809 840.871 559.325 846.057 552.838 854.895C532.737 852.725 513.06 849.895 493.883 846.447C500.134 826.143 513.925 807.733 535.133 796.04C579.928 771.343 640.089 795.451 656.022 844.486ZM871.038 716.848C924.248 689.876 989.459 726.307 994.474 785C973.822 795.637 951.576 805.33 927.957 813.956C944.288 799.019 937.294 766.28 911.052 765.22C906.388 765.032 902.103 765.039 901.53 765.237C870.771 775.84 879.123 819.854 907.163 821.157C884.999 828.425 861.755 834.782 837.597 840.136C811.45 799.67 823.383 741.001 871.038 716.848Z"/>
</mask>
<path fill-rule="evenodd" clip-rule="evenodd" d="M172.091 204.641C154.557 217.027 159.125 247.907 179.498 254.728C186.557 257.091 191.114 256.523 220.581 249.606L253.723 241.827L257.937 253.781C260.254 260.356 276.016 305.534 292.966 354.174C295.283 360.822 297.554 367.341 299.782 373.734C304.471 387.191 308.965 400.09 313.273 412.455C409.509 688.668 412.893 698.382 418.982 705.909C419.204 706.183 419.429 706.454 419.663 706.735C420.086 707.245 420.537 707.788 421.042 708.439C432.039 722.61 443.442 731.204 458.838 736.92C460.092 737.385 461.253 737.834 462.357 738.261C464.591 739.125 466.587 739.896 468.627 740.525C485.718 745.788 505.907 740.994 695.207 696.042C706.356 693.394 718.091 690.607 730.447 687.675L963.842 632.288L976.157 622.166C991.205 609.794 1002.78 591.966 1006.59 575.313C1007.4 571.762 1007.59 542.317 1007.39 501.593C1007.2 465.489 1006.7 420.518 1006.02 376.868C1004.77 295.628 1002.91 218.958 1001.4 212.509C997.122 194.281 979.841 177.26 959.894 171.626L947.057 168L642.678 238.847L338.298 309.694L319.009 254.041C317.727 250.342 316.511 246.813 315.351 243.448C302.628 206.529 296.688 189.293 285.014 183.385C274.792 178.212 260.173 181.727 232.751 188.321C229.896 189.007 226.903 189.727 223.761 190.473C197.553 196.704 174.302 203.079 172.091 204.641ZM951.089 501.593L948.935 394.358L948.034 349.495L945.595 227.998L657.216 295.689L651.41 297.052L357.228 366.105L360.34 373.815C362.053 378.057 369.63 399.322 377.182 421.076C384.068 440.915 390.415 459.213 396.269 476.091C397.103 478.494 397.927 480.869 398.74 483.215C398.773 483.31 398.806 483.404 398.839 483.498C401 489.728 403.091 495.758 405.115 501.593C462.944 668.302 465.923 676.429 471.551 679.226C471.837 679.368 472.129 679.496 472.435 679.63C473.073 679.91 473.773 680.217 474.602 680.731C474.961 680.953 475.3 681.171 475.628 681.381C476.252 681.781 476.835 682.154 477.439 682.489C486.039 687.255 498.985 684.177 696.197 637.302C703.482 635.57 711.018 633.779 718.815 631.926L941.058 579.108L946.667 569.913L952.276 560.716L951.089 501.593ZM736.627 367.635C754.706 353.033 783.626 365.073 784.368 387.509C784.379 387.816 784.309 388.28 784.165 388.891C784.145 388.978 784.123 389.069 784.099 389.162C781.267 400.356 756.674 454.402 733.907 501.593C715.557 539.63 698.393 573.213 694.767 576.315C683.417 586.03 675.969 584.72 617.403 562.733C554.133 538.978 547.195 533.5 552.696 511.652C553.681 507.738 554.843 504.39 556.286 501.593C563.905 486.823 579.357 487.453 618.034 501.593C619.391 502.089 620.777 502.602 622.192 503.132C643.543 511.119 661.421 517.56 661.917 517.443C662.259 517.363 665.552 510.935 670.087 501.593C672.132 497.381 674.429 492.577 676.822 487.495C684.521 471.139 691.227 457.156 691.722 456.42C692.216 455.685 701.546 436.197 712.451 413.113C723.359 390.03 734.238 369.564 736.627 367.635ZM656.022 844.486C657.726 849.729 658.935 854.916 659.686 860.017C656.465 860.051 653.236 860.068 650 860.068C633.175 860.068 616.542 859.612 600.137 858.721C599.011 856.847 597.602 855.025 595.887 853.285C592.721 850.072 587.601 846.581 584.509 845.529C570.809 840.871 559.325 846.057 552.838 854.895C532.737 852.725 513.06 849.895 493.883 846.447C500.134 826.143 513.925 807.733 535.133 796.04C579.928 771.343 640.089 795.451 656.022 844.486ZM871.038 716.848C924.248 689.876 989.459 726.307 994.474 785C973.822 795.637 951.576 805.33 927.957 813.956C944.288 799.019 937.294 766.28 911.052 765.22C906.388 765.032 902.103 765.039 901.53 765.237C870.771 775.84 879.123 819.854 907.163 821.157C884.999 828.425 861.755 834.782 837.597 840.136C811.45 799.67 823.383 741.001 871.038 716.848Z" fill="white"/>
<path d="M179.498 254.728L176.323 264.211L176.324 264.211L179.498 254.728ZM172.091 204.641L177.86 212.809L177.86 212.809L172.091 204.641ZM220.581 249.606L218.296 239.871H218.296L220.581 249.606ZM253.723 241.827L263.154 238.503L260.172 230.041L251.438 232.092L253.723 241.827ZM257.937 253.781L267.368 250.457L267.368 250.456L257.937 253.781ZM292.966 354.174L302.41 350.884L302.409 350.884L292.966 354.174ZM299.782 373.734L290.339 377.024L299.782 373.734ZM313.273 412.455L303.83 415.746L313.273 412.455ZM418.982 705.909L411.207 712.198L411.208 712.199L418.982 705.909ZM419.663 706.735L427.354 700.345L427.354 700.344L419.663 706.735ZM421.042 708.439L428.943 702.308L428.943 702.308L421.042 708.439ZM458.838 736.92L455.357 746.295L455.358 746.295L458.838 736.92ZM462.357 738.261L458.751 747.588H458.751L462.357 738.261ZM468.627 740.525L465.684 750.082L465.684 750.082L468.627 740.525ZM695.207 696.042L697.517 705.771L695.207 696.042ZM730.447 687.675L728.138 677.945H728.138L730.447 687.675ZM963.842 632.288L966.151 642.018L968.404 641.483L970.192 640.013L963.842 632.288ZM976.157 622.166L982.507 629.891L982.508 629.89L976.157 622.166ZM1006.59 575.313L1016.33 577.539L1016.33 577.538L1006.59 575.313ZM1007.39 501.593L1017.39 501.542L1007.39 501.593ZM1006.02 376.868L1016.02 376.713L1006.02 376.868ZM1001.4 212.509L991.665 214.794L991.666 214.794L1001.4 212.509ZM959.894 171.626L957.175 181.249L957.176 181.249L959.894 171.626ZM947.057 168L949.775 158.376L947.298 157.677L944.79 158.26L947.057 168ZM642.678 238.847L640.411 229.107L642.678 238.847ZM338.298 309.694L328.849 312.969L331.797 321.475L340.565 319.434L338.298 309.694ZM319.009 254.041L328.457 250.766V250.766L319.009 254.041ZM315.351 243.448L305.896 246.706L305.896 246.706L315.351 243.448ZM285.014 183.385L289.53 174.463V174.463L285.014 183.385ZM232.751 188.321L230.413 178.598H230.413L232.751 188.321ZM223.761 190.473L221.449 180.744L221.449 180.744L223.761 190.473ZM951.089 501.593L941.091 501.794V501.794L951.089 501.593ZM948.935 394.358L938.937 394.559V394.559L948.935 394.358ZM948.034 349.495L938.036 349.695L948.034 349.495ZM945.595 227.998L955.593 227.797L955.345 215.437L943.31 218.262L945.595 227.998ZM657.216 295.689L659.501 305.424L657.216 295.689ZM651.41 297.052L649.125 287.316L651.41 297.052ZM357.228 366.105L354.943 356.369L343.59 359.034L347.955 369.848L357.228 366.105ZM360.34 373.815L351.067 377.558L351.068 377.56L360.34 373.815ZM377.182 421.076L386.629 417.797L386.629 417.796L377.182 421.076ZM396.269 476.091L405.717 472.814L396.269 476.091ZM398.74 483.215L408.189 479.939L408.188 479.938L398.74 483.215ZM398.839 483.498L389.39 486.775L389.391 486.775L398.839 483.498ZM405.115 501.593L414.563 498.316H414.563L405.115 501.593ZM471.551 679.226L467.101 688.181L467.101 688.181L471.551 679.226ZM472.435 679.63L476.45 670.472L476.45 670.471L472.435 679.63ZM474.602 680.731L469.334 689.23L469.334 689.231L474.602 680.731ZM475.628 681.381L481.024 672.962L481.024 672.961L475.628 681.381ZM477.439 682.489L482.286 673.742L482.286 673.742L477.439 682.489ZM696.197 637.302L698.51 647.03L696.197 637.302ZM718.815 631.926L721.127 641.655L721.127 641.655L718.815 631.926ZM941.058 579.108L943.37 588.837L947.424 587.873L949.594 584.316L941.058 579.108ZM946.667 569.913L955.204 575.121L955.205 575.12L946.667 569.913ZM952.276 560.716L960.814 565.923L962.333 563.432L962.274 560.515L952.276 560.716ZM784.368 387.509L774.374 387.84V387.841L784.368 387.509ZM736.627 367.635L742.909 375.415L742.91 375.414L736.627 367.635ZM784.165 388.891L793.899 391.184L793.899 391.183L784.165 388.891ZM784.099 389.162L774.405 386.707L774.405 386.709L784.099 389.162ZM733.907 501.593L724.901 497.248L733.907 501.593ZM694.767 576.315L688.267 568.716L688.265 568.718L694.767 576.315ZM617.403 562.733L613.888 572.095L613.888 572.095L617.403 562.733ZM552.696 511.652L542.999 509.21L542.999 509.21L552.696 511.652ZM556.286 501.593L565.173 506.178V506.178L556.286 501.593ZM618.034 501.593L614.6 510.985L614.6 510.985L618.034 501.593ZM622.192 503.132L618.688 512.498L618.688 512.498L622.192 503.132ZM661.917 517.443L659.632 507.708H659.632L661.917 517.443ZM670.087 501.593L661.091 497.226L661.091 497.226L670.087 501.593ZM676.822 487.495L685.869 491.756L685.87 491.754L676.822 487.495ZM691.722 456.42L700.016 462.008L700.021 462L700.026 461.992L691.722 456.42ZM712.451 413.113L703.41 408.84L703.409 408.841L712.451 413.113ZM659.686 860.017L659.791 870.017L671.25 869.897L669.58 858.56L659.686 860.017ZM656.022 844.486L646.512 847.577L646.512 847.577L656.022 844.486ZM650 860.068L650 850.068H650V860.068ZM600.137 858.721L591.567 863.874L594.3 868.419L599.595 868.707L600.137 858.721ZM595.887 853.285L588.763 860.303L588.765 860.304L595.887 853.285ZM584.509 845.529L587.73 836.062L587.729 836.061L584.509 845.529ZM552.838 854.895L551.765 864.837L557.492 865.456L560.9 860.812L552.838 854.895ZM493.883 846.447L484.325 843.504L481.004 854.292L492.113 856.289L493.883 846.447ZM535.133 796.04L530.305 787.282L530.305 787.282L535.133 796.04ZM994.474 785L999.053 793.89L1005.01 790.822L1004.44 784.148L994.474 785ZM871.038 716.848L875.559 725.768L875.559 725.767L871.038 716.848ZM927.957 813.956L921.208 806.577L931.388 823.349L927.957 813.956ZM911.052 765.22L911.455 755.228H911.455L911.052 765.22ZM901.53 765.237L904.789 774.691L904.799 774.688L901.53 765.237ZM907.163 821.157L910.279 830.659L907.627 811.168L907.163 821.157ZM837.597 840.136L829.198 845.563L832.972 851.404L839.761 849.899L837.597 840.136ZM182.673 245.246C176.854 243.297 172.552 237.617 171.472 230.308C170.391 222.999 172.866 216.337 177.86 212.809L166.322 196.473C153.782 205.331 149.774 220.301 151.687 233.234C153.599 246.167 161.768 259.337 176.323 264.211L182.673 245.246ZM218.296 239.871C203.39 243.37 195.461 245.093 190.399 245.724C186.057 246.265 184.67 245.914 182.672 245.245L176.324 264.211C181.384 265.905 185.806 266.451 192.873 265.57C199.222 264.779 208.305 262.76 222.866 259.342L218.296 239.871ZM251.438 232.092L218.296 239.871L222.866 259.342L256.008 251.562L251.438 232.092ZM267.368 250.456L263.154 238.503L244.292 245.151L248.506 257.105L267.368 250.456ZM302.409 350.884C285.464 302.256 269.693 257.054 267.368 250.457L248.505 257.104C250.815 263.658 266.569 308.812 283.523 357.465L302.409 350.884ZM309.225 370.443C306.997 364.05 304.726 357.531 302.41 350.884L283.523 357.465C285.84 364.112 288.111 370.631 290.339 377.024L309.225 370.443ZM290.339 377.024C295.027 390.481 299.522 403.38 303.83 415.746L322.716 409.165C318.408 396.8 313.914 383.901 309.225 370.443L290.339 377.024ZM303.83 415.746C351.935 553.817 376.864 625.368 390.523 663.325C403.871 700.42 406.83 706.787 411.207 712.198L426.756 699.619C425.045 697.504 423.267 695.251 409.342 656.554C395.728 618.72 370.846 547.307 322.716 409.165L303.83 415.746ZM411.208 712.199C411.477 712.532 411.745 712.853 411.971 713.126L427.354 700.344C427.113 700.055 426.93 699.834 426.756 699.619L411.208 712.199ZM411.971 713.126C412.398 713.64 412.751 714.066 413.142 714.569L428.943 702.308C428.323 701.51 427.775 700.851 427.354 700.345L411.971 713.126ZM413.142 714.569C425.171 730.071 438.054 739.871 455.357 746.295L462.318 727.545C448.829 722.537 438.906 715.149 428.943 702.308L413.142 714.569ZM455.358 746.295C456.54 746.734 457.641 747.159 458.751 747.588L465.962 728.934C464.865 728.509 463.643 728.037 462.318 727.545L455.358 746.295ZM458.751 747.588C460.92 748.427 463.249 749.332 465.684 750.082L471.571 730.968C469.925 730.461 468.261 729.822 465.962 728.934L458.751 747.588ZM465.684 750.082C476.928 753.545 488.577 753.055 519.297 746.921C550.37 740.716 602.985 728.219 697.517 705.771L692.896 686.312C598.129 708.816 545.999 721.194 515.38 727.308C484.409 733.493 477.418 732.768 471.57 730.968L465.684 750.082ZM697.517 705.771C708.666 703.123 720.401 700.337 732.756 697.405L728.138 677.945C715.781 680.878 704.045 683.665 692.896 686.312L697.517 705.771ZM732.756 697.405L966.151 642.018L961.533 622.558L728.138 677.945L732.756 697.405ZM970.192 640.013L982.507 629.891L969.807 614.441L957.492 624.563L970.192 640.013ZM982.508 629.89C999.014 616.319 1011.97 596.649 1016.33 577.539L996.837 573.087C993.595 587.284 983.396 603.268 969.806 614.441L982.508 629.89ZM1016.33 577.538C1016.64 576.214 1016.76 574.604 1016.84 573.469C1016.93 572.082 1017.01 570.354 1017.08 568.354C1017.21 564.343 1017.3 558.966 1017.37 552.49C1017.49 539.521 1017.49 521.922 1017.39 501.542L997.385 501.644C997.489 521.988 997.492 539.474 997.368 552.296C997.306 558.715 997.213 563.911 997.087 567.692C997.024 569.588 996.955 571.061 996.884 572.124C996.795 573.438 996.737 573.525 996.836 573.088L1016.33 577.538ZM996.026 377.022C996.7 420.648 997.202 465.583 997.385 501.644L1017.39 501.542C1017.2 465.394 1016.7 420.388 1016.02 376.713L996.026 377.022ZM991.666 214.794C991.63 214.644 991.791 215.649 992.006 218.778C992.196 221.527 992.393 225.272 992.595 229.92C992.997 239.202 993.409 251.866 993.813 266.91C994.621 296.987 995.398 336.423 996.026 377.022L1016.02 376.713C1015.39 336.072 1014.62 296.554 1013.81 266.373C1013.4 251.289 1012.99 238.498 1012.58 229.053C1012.37 224.337 1012.17 220.399 1011.96 217.403C1011.78 214.788 1011.55 211.986 1011.14 210.224L991.666 214.794ZM957.176 181.249C974.081 186.024 988.321 200.546 991.665 214.794L1011.14 210.224C1005.92 188.017 985.602 168.496 962.612 162.002L957.176 181.249ZM944.339 177.623L957.175 181.249L962.612 162.002L949.775 158.376L944.339 177.623ZM644.945 248.586L949.324 177.74L944.79 158.26L640.411 229.107L644.945 248.586ZM340.565 319.434L644.945 248.586L640.411 229.107L336.031 299.954L340.565 319.434ZM309.56 257.316L328.849 312.969L347.746 306.419L328.457 250.766L309.56 257.316ZM305.896 246.706C307.056 250.07 308.275 253.607 309.56 257.316L328.457 250.766C327.179 247.077 325.965 243.556 324.805 240.19L305.896 246.706ZM280.499 192.308C283.269 193.71 286.464 196.932 290.736 206.036C294.988 215.095 299.456 228.017 305.896 246.706L324.805 240.19C318.523 221.96 313.659 207.805 308.842 197.539C304.045 187.318 298.433 178.969 289.53 174.463L280.499 192.308ZM235.088 198.043C249.022 194.693 258.902 192.332 266.586 191.362C274.226 190.396 278.037 191.062 280.499 192.308L289.53 174.463C281.769 170.536 273.159 170.372 264.079 171.519C255.041 172.661 243.902 175.354 230.413 178.598L235.088 198.043ZM226.074 200.202C229.23 199.452 232.235 198.729 235.088 198.043L230.413 178.598C227.557 179.284 224.576 180.001 221.449 180.744L226.074 200.202ZM177.86 212.809C176.907 213.482 176.275 213.617 177.373 213.206C178.039 212.957 179.045 212.615 180.42 212.182C183.148 211.321 186.944 210.221 191.572 208.952C200.805 206.42 213.056 203.297 226.074 200.202L221.449 180.744C208.258 183.88 195.78 187.06 186.283 189.664C181.545 190.963 177.476 192.139 174.404 193.108C172.878 193.589 171.5 194.05 170.369 194.473C169.671 194.734 167.827 195.41 166.322 196.473L177.86 212.809ZM961.086 501.392L958.933 394.158L938.937 394.559L941.091 501.794L961.086 501.392ZM958.933 394.158L958.032 349.294L938.036 349.695L938.937 394.559L958.933 394.158ZM958.032 349.294L955.593 227.797L935.597 228.198L938.036 349.695L958.032 349.294ZM943.31 218.262L654.931 285.953L659.501 305.424L947.88 237.733L943.31 218.262ZM653.696 306.787L659.501 305.424L654.931 285.953L649.125 287.316L653.696 306.787ZM359.513 375.84L653.696 306.787L649.125 287.316L354.943 356.369L359.513 375.84ZM347.955 369.848L351.067 377.558L369.613 370.072L366.501 362.362L347.955 369.848ZM351.068 377.56C352.664 381.511 360.14 402.478 367.735 424.355L386.629 417.796C379.12 396.167 371.443 374.603 369.613 370.071L351.068 377.56ZM367.735 424.355C374.62 444.193 380.967 462.49 386.821 479.368L405.717 472.814C399.863 455.936 393.515 437.637 386.629 417.797L367.735 424.355ZM408.188 479.938C407.374 477.592 406.551 475.217 405.717 472.814L386.821 479.368C387.655 481.771 388.479 484.146 389.293 486.493L408.188 479.938ZM408.287 480.222C408.25 480.116 408.224 480.042 408.189 479.939L389.292 486.492C389.322 486.577 389.362 486.692 389.39 486.775L408.287 480.222ZM389.391 486.775C391.552 493.005 393.643 499.035 395.667 504.87L414.563 498.316C412.539 492.481 410.447 486.451 408.286 480.221L389.391 486.775ZM476.001 670.271C476.23 670.384 476.643 670.668 476.89 670.943C476.941 671 476.585 670.615 475.782 669.086C474.139 665.957 471.629 660.026 467.276 648.376C458.652 625.299 443.503 581.744 414.563 498.316L395.667 504.87C424.556 588.151 439.811 632.014 448.541 655.377C452.865 666.947 455.769 673.992 458.075 678.383C459.246 680.614 460.498 682.625 462.015 684.313C463.728 686.219 465.466 687.369 467.101 688.181L476.001 670.271ZM476.45 670.471C476.287 670.4 476.192 670.358 476.108 670.32C476.071 670.303 476.045 670.291 476.026 670.283C476.009 670.274 476.001 670.271 476.001 670.271L467.101 688.181C467.638 688.448 468.153 688.672 468.42 688.789L476.45 670.471ZM479.87 672.231C478.386 671.311 477.116 670.763 476.45 670.472L468.42 688.789C469.03 689.056 469.159 689.122 469.334 689.23L479.87 672.231ZM481.024 672.961C480.704 672.756 480.303 672.499 479.87 672.231L469.334 689.231C469.619 689.407 469.897 689.585 470.232 689.8L481.024 672.961ZM482.286 673.742C482.01 673.589 481.699 673.394 481.024 672.962L470.232 689.8C470.805 690.167 471.659 690.719 472.592 691.236L482.286 673.742ZM693.885 627.573C595.182 651.034 542.835 663.475 514.05 669.471C499.553 672.491 491.596 673.751 486.879 674.051C484.591 674.197 483.479 674.084 482.986 673.996C482.666 673.938 482.558 673.893 482.286 673.742L472.592 691.236C476.904 693.625 481.388 694.442 488.151 694.011C494.444 693.61 503.661 692.064 518.128 689.051C547.268 682.981 600.001 670.445 698.51 647.03L693.885 627.573ZM716.503 622.197C708.706 624.05 701.17 625.841 693.885 627.573L698.51 647.03C705.795 645.299 713.331 643.508 721.127 641.655L716.503 622.197ZM938.745 569.379L716.503 622.197L721.127 641.655L943.37 588.837L938.745 569.379ZM938.13 564.705L932.521 573.9L949.594 584.316L955.204 575.121L938.13 564.705ZM943.739 555.509L938.13 564.706L955.205 575.12L960.814 565.923L943.739 555.509ZM941.091 501.794L942.278 560.917L962.274 560.515L961.086 501.392L941.091 501.794ZM794.363 387.178C793.838 371.318 783.319 359.645 770.842 354.451C758.372 349.259 742.634 349.929 730.344 359.855L742.91 375.414C748.699 370.739 756.461 370.128 763.156 372.915C769.844 375.699 774.156 381.264 774.374 387.84L794.363 387.178ZM793.899 391.183C794.073 390.444 794.42 388.89 794.363 387.177L774.374 387.841C774.362 387.474 774.377 387.187 774.39 387.011C774.404 386.828 774.422 386.696 774.432 386.627C774.451 386.497 774.461 386.476 774.432 386.599L793.899 391.183ZM793.793 391.616C793.831 391.469 793.866 391.325 793.899 391.184L774.432 386.598C774.424 386.632 774.415 386.668 774.405 386.707L793.793 391.616ZM742.914 505.938C754.329 482.278 766.208 456.885 775.601 435.976C780.295 425.527 784.389 416.15 787.501 408.646C790.505 401.402 792.876 395.243 793.794 391.614L774.405 386.709C773.907 388.677 772.142 393.472 769.026 400.985C766.019 408.238 762.011 417.42 757.357 427.781C748.053 448.492 736.253 473.717 724.901 497.248L742.914 505.938ZM724.901 497.248C715.748 516.221 706.917 534.027 699.943 547.442C696.45 554.162 693.467 559.694 691.166 563.691C690.01 565.699 689.085 567.215 688.395 568.26C687.463 569.671 687.501 569.371 688.267 568.716L701.268 583.914C702.94 582.483 704.308 580.456 705.08 579.287C706.094 577.753 707.249 575.84 708.499 573.669C711.009 569.308 714.144 563.486 717.688 556.667C724.79 543.006 733.717 525.002 742.914 505.938L724.901 497.248ZM688.265 568.718C685.902 570.74 684.612 571.422 683.427 571.754C682.184 572.103 680.001 572.349 675.52 571.563C666.052 569.901 650.571 564.504 620.918 553.371L613.888 572.095C642.8 582.949 660.326 589.201 672.062 591.262C678.183 592.336 683.65 592.463 688.826 591.012C694.06 589.544 697.958 586.747 701.27 583.912L688.265 568.718ZM620.918 553.371C605.108 547.435 593.052 542.727 583.88 538.661C574.598 534.545 568.915 531.359 565.456 528.628C562.242 526.091 561.596 524.467 561.357 523.373C561.011 521.791 561.095 519.25 562.393 514.094L542.999 509.21C541.546 514.979 540.434 521.315 541.819 527.647C543.311 534.468 547.323 539.794 553.064 544.326C558.561 548.666 566.132 552.669 575.773 556.944C585.526 561.268 598.063 566.153 613.888 572.095L620.918 553.371ZM562.393 514.094C563.266 510.627 564.198 508.067 565.173 506.178L547.399 497.008C545.488 500.712 544.097 504.85 542.999 509.21L562.393 514.094ZM621.467 492.201C602.202 485.158 587.178 480.846 575.595 480.752C569.552 480.703 563.811 481.779 558.724 484.705C553.573 487.667 549.973 492.019 547.399 497.008L565.173 506.178C566.409 503.782 567.597 502.674 568.695 502.042C569.857 501.374 571.825 500.722 575.432 500.751C583.149 500.814 595.189 503.888 614.6 510.985L621.467 492.201ZM614.6 510.985C615.931 511.472 617.294 511.976 618.688 512.498L625.696 493.766C624.26 493.228 622.85 492.707 621.467 492.201L614.6 510.985ZM618.688 512.498C629.39 516.501 639.237 520.123 646.486 522.734C650.103 524.038 653.109 525.102 655.263 525.84C656.328 526.205 657.252 526.513 657.962 526.734C658.3 526.84 658.703 526.962 659.095 527.064C659.273 527.111 659.61 527.196 660.013 527.27C660.206 527.306 660.578 527.369 661.043 527.409C661.246 527.426 662.579 527.56 664.202 527.179L659.632 507.708C661.24 507.33 662.549 507.465 662.719 507.479C663.152 507.515 663.483 507.573 663.628 507.6C663.932 507.656 664.138 507.711 664.153 507.714C664.217 507.731 664.165 507.719 663.925 507.644C663.478 507.505 662.758 507.266 661.743 506.919C659.738 506.232 656.847 505.209 653.265 503.918C646.112 501.342 636.345 497.749 625.695 493.766L618.688 512.498ZM664.202 527.179C666.824 526.563 668.428 525.048 668.657 524.842C669.197 524.354 669.574 523.908 669.753 523.689C670.133 523.225 670.416 522.801 670.555 522.588C670.867 522.109 671.168 521.59 671.415 521.151C671.935 520.227 672.588 518.993 673.322 517.567C674.805 514.683 676.801 510.663 679.083 505.96L661.091 497.226C658.839 501.866 656.92 505.73 655.538 508.416C654.839 509.775 654.321 510.746 653.986 511.341C653.805 511.663 653.757 511.732 653.807 511.656C653.814 511.645 653.986 511.376 654.278 511.02C654.413 510.854 654.752 510.45 655.259 509.993C655.518 509.759 655.952 509.391 656.544 509.013C657.083 508.667 658.146 508.056 659.632 507.708L664.202 527.179ZM667.775 483.235C665.397 488.284 663.117 493.053 661.091 497.226L679.083 505.96C681.147 501.71 683.461 496.87 685.869 491.756L667.775 483.235ZM683.429 450.833C682.931 451.572 682.433 452.583 682.337 452.773C682.061 453.317 681.705 454.034 681.289 454.884C680.451 456.592 679.312 458.95 677.956 461.777C675.243 467.435 671.631 475.043 667.774 483.237L685.87 491.754C689.712 483.592 693.302 476.03 695.99 470.424C697.336 467.618 698.447 465.32 699.247 463.688C699.649 462.868 699.958 462.244 700.174 461.819C700.57 461.039 700.39 461.452 700.016 462.008L683.429 450.833ZM703.409 408.841C697.962 420.372 692.911 430.999 689.163 438.83C687.287 442.747 685.744 445.952 684.643 448.215C684.091 449.35 683.661 450.226 683.36 450.829C683.208 451.134 683.105 451.337 683.043 451.455C682.852 451.824 683.068 451.371 683.419 450.848L700.026 461.992C700.438 461.378 700.785 460.686 700.79 460.678C700.925 460.419 701.083 460.105 701.255 459.762C701.601 459.068 702.066 458.12 702.628 456.964C703.756 454.645 705.32 451.397 707.202 447.465C710.969 439.597 716.035 428.937 721.493 417.384L703.409 408.841ZM730.345 359.854C728.784 361.115 727.621 362.792 727.132 363.497C726.405 364.546 725.613 365.806 724.795 367.174C723.145 369.93 721.132 373.555 718.904 377.747C714.434 386.155 708.917 397.186 703.41 408.84L721.493 417.385C726.894 405.956 732.27 395.213 736.564 387.135C738.717 383.084 740.553 379.789 741.957 377.443C742.664 376.261 743.199 375.425 743.567 374.895C744.173 374.021 743.873 374.637 742.909 375.415L730.345 359.854ZM669.58 858.56C668.745 852.894 667.406 847.161 665.533 841.396L646.512 847.577C648.046 852.297 649.125 856.938 649.793 861.475L669.58 858.56ZM650 870.068C653.271 870.068 656.534 870.051 659.791 870.017L659.582 850.018C656.395 850.051 653.201 850.068 650 850.068L650 870.068ZM599.595 868.707C616.181 869.607 632.995 870.068 650 870.068V850.068C633.356 850.068 616.903 849.617 600.68 848.736L599.595 868.707ZM588.765 860.304C589.949 861.506 590.865 862.706 591.567 863.874L608.708 853.569C607.157 850.989 605.256 848.544 603.009 846.265L588.765 860.304ZM581.289 854.996C581.284 854.995 581.308 855.003 581.364 855.025C581.419 855.047 581.495 855.08 581.593 855.125C581.793 855.216 582.05 855.344 582.362 855.514C582.991 855.857 583.736 856.312 584.538 856.859C586.186 857.983 587.729 859.253 588.763 860.303L603.01 846.266C600.879 844.103 598.279 842.022 595.803 840.334C593.444 838.726 590.526 837.013 587.73 836.062L581.289 854.996ZM560.9 860.812C565.006 855.218 572.036 851.85 581.29 854.997L587.729 836.061C569.583 829.891 553.645 836.896 544.777 848.978L560.9 860.812ZM492.113 856.289C511.525 859.78 531.434 862.643 551.765 864.837L553.912 844.953C534.04 842.808 514.596 840.011 495.652 836.605L492.113 856.289ZM530.305 787.282C506.724 800.284 491.305 820.837 484.325 843.504L503.44 849.39C508.964 831.45 521.125 815.182 539.962 804.797L530.305 787.282ZM665.533 841.396C647.69 786.484 580.686 759.506 530.305 787.282L539.962 804.797C579.17 783.18 632.488 804.418 646.512 847.577L665.533 841.396ZM1004.44 784.148C998.815 718.344 926.008 677.773 866.517 707.928L875.559 725.767C922.489 701.979 980.103 734.269 984.51 785.851L1004.44 784.148ZM931.388 823.349C955.371 814.59 978.003 804.732 999.053 793.89L989.895 776.11C969.641 786.542 947.781 796.07 924.527 804.563L931.388 823.349ZM910.648 775.212C918.878 775.544 923.914 780.517 925.874 787.199C927.966 794.331 926.116 802.088 921.208 806.577L934.707 821.335C946.129 810.887 948.948 794.805 945.065 781.569C941.05 767.882 929.469 755.956 911.455 755.228L910.648 775.212ZM904.799 774.688C904.07 774.94 903.497 775.037 903.358 775.06C903.138 775.098 902.986 775.114 902.945 775.118C902.86 775.127 902.882 775.122 903.064 775.114C903.412 775.098 903.983 775.085 904.775 775.084C906.335 775.081 908.429 775.122 910.649 775.212L911.455 755.228C909.011 755.13 906.631 755.08 904.74 755.084C903.805 755.085 902.907 755.1 902.144 755.135C901.771 755.152 901.328 755.179 900.881 755.225C900.742 755.24 899.551 755.34 898.262 755.786L904.799 774.688ZM907.627 811.168C899.614 810.795 893.463 804.325 892.2 795.299C891 786.726 894.67 778.179 904.789 774.691L898.272 755.783C877.631 762.898 870.097 781.66 872.393 798.07C874.626 814.028 886.671 830.215 906.698 831.146L907.627 811.168ZM839.761 849.899C864.227 844.477 887.79 838.034 910.279 830.659L904.047 811.655C882.208 818.816 859.283 825.088 835.434 830.373L839.761 849.899ZM866.517 707.928C813.222 734.94 800.043 800.443 829.198 845.563L845.996 834.709C822.856 798.897 833.544 747.062 875.559 725.768L866.517 707.928Z" fill="#2F3276" mask="url(#path-4-inside-1_202_53)"/>
<rect width="1080" height="222" transform="translate(110 933)" fill="white"/>
<path d="M219.3 1032.69C230.343 1032.69 239.253 1036.08 246.032 1042.86C252.811 1049.63 256.2 1059.64 256.2 1072.87V1116H234.88V1072.87C234.88 1059.97 229.687 1053.52 219.3 1053.52C208.913 1053.52 203.72 1059.97 203.72 1072.87V1116H182.4V1072.87C182.4 1059.97 177.207 1053.52 166.82 1053.52C156.433 1053.52 151.24 1059.97 151.24 1072.87V1116H129.92V1072.87C129.92 1059.64 133.309 1049.63 140.088 1042.86C146.867 1036.08 155.777 1032.69 166.82 1032.69C178.409 1032.69 187.156 1036.46 193.06 1044C198.964 1036.46 207.711 1032.69 219.3 1032.69ZM265.233 1075.16C265.233 1063.57 269.223 1053.63 277.205 1045.32C285.295 1036.9 295.19 1032.69 306.889 1032.69C317.822 1032.69 327.553 1036.35 336.081 1043.68C344.718 1051 349.255 1060.84 349.693 1073.2C349.802 1076.69 349.583 1080.08 349.037 1083.36H288.193C289.177 1087.41 291.309 1090.63 294.589 1093.04C297.978 1095.34 302.078 1096.48 306.889 1096.48C312.355 1096.48 317.057 1094.9 320.993 1091.73L346.413 1091.89C343.023 1099.44 337.83 1105.56 330.833 1110.26C323.835 1114.96 316.073 1117.31 307.545 1117.31C295.737 1117.31 285.733 1113.21 277.533 1105.01C269.333 1096.81 265.233 1086.86 265.233 1075.16ZM288.193 1066.31H326.897C325.257 1062.48 322.633 1059.42 319.025 1057.12C315.526 1054.72 311.699 1053.52 307.545 1053.52C298.251 1053.52 291.801 1057.78 288.193 1066.31ZM380.103 1116H358.783V1001.2H380.103V1116ZM406.009 1025.31C402.401 1025.31 399.34 1024.11 396.825 1021.7C394.42 1019.19 393.217 1016.12 393.217 1012.52C393.217 1009.02 394.42 1006.07 396.825 1003.66C399.34 1001.15 402.401 999.888 406.009 999.888C409.508 999.888 412.46 1001.15 414.865 1003.66C417.38 1006.07 418.637 1009.02 418.637 1012.52C418.637 1016.12 417.38 1019.19 414.865 1021.7C412.46 1024.11 409.508 1025.31 406.009 1025.31ZM395.349 1116V1034H416.669V1116H395.349ZM473.615 1116V1001.2H510.679C520.957 1001.2 529.649 1004.64 536.755 1011.53C543.971 1018.31 547.579 1026.73 547.579 1036.79C547.579 1047.07 543.971 1055.81 536.755 1063.03C529.539 1070.24 520.847 1073.85 510.679 1073.85H494.935V1116H473.615ZM494.935 1054.83H510.679C515.49 1054.83 519.262 1053.13 521.995 1049.74C524.838 1046.25 526.259 1041.93 526.259 1036.79C526.259 1031.76 524.838 1027.77 521.995 1024.82C519.262 1021.75 515.49 1020.22 510.679 1020.22H494.935V1054.83ZM551.611 1116V1072.87C551.611 1059.86 554.837 1050.07 561.287 1043.51C567.738 1036.95 576.211 1033.67 586.707 1033.67H587.691V1054.5H586.871C577.578 1054.5 572.931 1060.62 572.931 1072.87V1116H551.611ZM605.853 1045.15C614.162 1036.84 624.166 1032.69 635.865 1032.69C647.564 1032.69 657.513 1036.84 665.713 1045.15C674.022 1053.35 678.177 1063.3 678.177 1075C678.177 1086.7 674.022 1096.7 665.713 1105.01C657.513 1113.21 647.564 1117.31 635.865 1117.31C624.166 1117.31 614.162 1113.21 605.853 1105.01C597.653 1096.7 593.553 1086.7 593.553 1075C593.553 1063.3 597.653 1053.35 605.853 1045.15ZM650.953 1059.75C647.017 1055.59 642.042 1053.52 636.029 1053.52C630.016 1053.52 624.986 1055.59 620.941 1059.75C616.896 1063.79 614.873 1068.88 614.873 1075C614.873 1081.12 616.896 1086.26 620.941 1090.42C624.986 1094.46 630.016 1096.48 636.029 1096.48C642.042 1096.48 647.017 1094.46 650.953 1090.42C654.889 1086.26 656.857 1081.12 656.857 1075C656.857 1068.88 654.889 1063.79 650.953 1059.75ZM770.904 1075C770.904 1086.7 766.804 1096.7 758.604 1105.01C750.404 1113.21 740.454 1117.31 728.756 1117.31C717.057 1117.31 707.053 1113.21 698.744 1105.01C690.544 1096.7 686.444 1086.7 686.444 1075C686.444 1063.3 690.544 1053.35 698.744 1045.15C707.053 1036.84 717.057 1032.69 728.756 1032.69C736.737 1032.69 743.625 1034.77 749.42 1038.92V1001.2H770.904V1075ZM743.68 1059.75C739.634 1055.59 734.605 1053.52 728.592 1053.52C722.578 1053.52 717.604 1055.59 713.668 1059.75C709.732 1063.79 707.764 1068.88 707.764 1075C707.764 1081.12 709.732 1086.26 713.668 1090.42C717.604 1094.46 722.578 1096.48 728.592 1096.48C734.605 1096.48 739.634 1094.46 743.68 1090.42C747.725 1086.26 749.748 1081.12 749.748 1075C749.748 1068.88 747.725 1063.79 743.68 1059.75ZM856.158 1034H834.838V1077.13C834.838 1083.8 833.635 1088.72 831.23 1091.89C828.934 1094.95 825.217 1096.48 820.078 1096.48C814.939 1096.48 811.167 1094.95 808.762 1091.89C806.466 1088.72 805.318 1083.8 805.318 1077.13V1034H783.998V1077.13C783.998 1090.47 787.278 1100.53 793.838 1107.31C800.398 1113.98 809.145 1117.31 820.078 1117.31C831.011 1117.31 839.758 1113.98 846.318 1107.31C852.878 1100.53 856.158 1090.47 856.158 1077.13V1034ZM907.49 1117.31C895.791 1117.31 885.787 1113.21 877.478 1105.01C869.278 1096.7 865.178 1086.7 865.178 1075C865.178 1063.3 869.278 1053.35 877.478 1045.15C885.787 1036.84 895.791 1032.69 907.49 1032.69C917.111 1032.69 925.639 1035.59 933.074 1041.38C940.618 1047.07 945.647 1054.39 948.162 1063.36H925.53C921.485 1056.8 915.526 1053.52 907.654 1053.52C901.641 1053.52 896.611 1055.59 892.566 1059.75C888.521 1063.79 886.498 1068.88 886.498 1075C886.498 1081.12 888.521 1086.26 892.566 1090.42C896.611 1094.46 901.641 1096.48 907.654 1096.48C914.979 1096.48 920.719 1093.48 924.874 1087.46H947.998C945.374 1096.21 940.345 1103.37 932.91 1108.95C925.475 1114.52 917.002 1117.31 907.49 1117.31ZM1001.45 1054.83H986.685V1077.3C986.685 1083.86 987.833 1088.56 990.129 1091.4C992.425 1094.24 996.197 1095.66 1001.45 1095.66V1116.49C990.403 1116.49 981.601 1113.27 975.041 1106.82C968.591 1100.37 965.365 1090.53 965.365 1077.3V1054.83H953.229V1034H965.365V1001.36H986.685V1034H1001.45V1054.83ZM1019.54 1045.15C1027.85 1036.84 1037.85 1032.69 1049.55 1032.69C1061.25 1032.69 1071.2 1036.84 1079.4 1045.15C1087.71 1053.35 1091.86 1063.3 1091.86 1075C1091.86 1086.7 1087.71 1096.7 1079.4 1105.01C1071.2 1113.21 1061.25 1117.31 1049.55 1117.31C1037.85 1117.31 1027.85 1113.21 1019.54 1105.01C1011.34 1096.7 1007.24 1086.7 1007.24 1075C1007.24 1063.3 1011.34 1053.35 1019.54 1045.15ZM1064.64 1059.75C1060.7 1055.59 1055.73 1053.52 1049.71 1053.52C1043.7 1053.52 1038.67 1055.59 1034.62 1059.75C1030.58 1063.79 1028.56 1068.88 1028.56 1075C1028.56 1081.12 1030.58 1086.26 1034.62 1090.42C1038.67 1094.46 1043.7 1096.48 1049.71 1096.48C1055.73 1096.48 1060.7 1094.46 1064.64 1090.42C1068.57 1086.26 1070.54 1081.12 1070.54 1075C1070.54 1068.88 1068.57 1063.79 1064.64 1059.75ZM1134.57 1117.31C1124.73 1117.31 1116.36 1114.85 1109.48 1109.93C1102.7 1105.01 1099.31 1098.18 1099.31 1089.43H1119.64C1119.64 1092.06 1121.06 1094.19 1123.91 1095.83C1126.86 1097.47 1130.58 1098.29 1135.06 1098.29C1139.32 1098.29 1142.6 1097.58 1144.9 1096.16C1147.3 1094.63 1148.51 1092.71 1148.51 1090.42C1148.51 1088.34 1147.3 1086.7 1144.9 1085.5C1142.49 1084.29 1139.49 1083.47 1135.88 1083.04C1132.38 1082.6 1128.5 1081.94 1124.24 1081.07C1120.08 1080.08 1116.2 1078.88 1112.59 1077.46C1109.09 1076.04 1106.14 1073.63 1103.74 1070.24C1101.33 1066.85 1100.13 1062.59 1100.13 1057.45C1100.13 1050.35 1103.35 1044.44 1109.8 1039.74C1116.36 1035.04 1124.45 1032.69 1134.08 1032.69C1143.92 1032.69 1151.95 1035.09 1158.18 1039.9C1164.42 1044.61 1167.53 1051.17 1167.53 1059.58H1147.2C1147.2 1057.29 1145.83 1055.37 1143.1 1053.84C1140.47 1052.31 1137.36 1051.55 1133.75 1051.55C1130.25 1051.55 1127.3 1052.26 1124.89 1053.68C1122.6 1055.1 1121.45 1056.91 1121.45 1059.09C1121.45 1061.17 1123.09 1062.75 1126.37 1063.85C1129.65 1064.94 1133.64 1065.87 1138.34 1066.64C1143.15 1067.29 1147.91 1068.28 1152.61 1069.59C1157.31 1070.9 1161.3 1073.36 1164.58 1076.97C1167.97 1080.47 1169.72 1085.11 1169.83 1090.91C1169.94 1099.65 1166.71 1106.27 1160.15 1110.75C1153.7 1115.13 1145.17 1117.31 1134.57 1117.31Z" fill="#2F3276"/>
</svg>
